<svg width="19" height="20" viewBox="0 0 19 20" fill="none" xmlns="http://www.w3.org/2000/svg">
<path fill-rule="evenodd" clip-rule="evenodd" d="M9.09091 0C4.07778 0 0 4.03793 0 8.99984L0.0515164 16.9997C0.298991 18.6907 1.75859 19.9996 3.53535 19.9996C4.72121 19.9996 5.6303 19.5826 6.23434 18.8257C6.60999 19.199 7.05662 19.4951 7.54846 19.6966C8.0403 19.8982 8.5676 20.0013 9.09992 20C9.63223 19.9987 10.159 19.893 10.6498 19.689C11.1407 19.4851 11.5858 19.1869 11.9596 18.8117C12.5667 19.5736 13.4788 19.9996 14.6465 19.9996C16.596 19.9996 18.1818 18.4297 18.1818 16.4997V8.99984C18.1818 4.03793 14.104 0 9.09091 0ZM5.92339 10.9661C7.15069 10.9661 8.14562 9.97122 8.14562 8.74392C8.14562 7.51662 7.15069 6.5217 5.92339 6.5217C4.69609 6.5217 3.70117 7.51662 3.70117 8.74392C3.70117 9.97122 4.69609 10.9661 5.92339 10.9661ZM14.8121 8.74392C14.8121 9.97122 13.8172 10.9661 12.5899 10.9661C11.3626 10.9661 10.3677 9.97122 10.3677 8.74392C10.3677 7.51662 11.3626 6.5217 12.5899 6.5217C13.8172 6.5217 14.8121 7.51662 14.8121 8.74392Z" fill="#5856D6"/>
</svg>
